<?xml version="1.0" encoding="utf-8"?>
<svg viewBox="0 0 690.8 512" width="690.8" height="512" xmlns="http://www.w3.org/2000/svg">
  <g transform="matrix(0.142723, 0, 0, -0.142723, -22.122063, 553.390576)" fill="#661b8d" stroke="none">
    <path d="M3950 3874 c-50 -18 -77 -37 -138 -95 -28 -27 -52 -62 -52 -76 0 -7 -4 -13 -10 -13 -5 0 -10 -7 -10 -15 0 -8 -4 -15 -10 -15 -5 0 -12 -17 -16 -37 -4 -21 -11 -40 -15 -43 -5 -3 -11 -43 -15 -88 l-7 -82 -64 0 c-56 0 -66 -3 -70 -20 -3 -11 -9 -20 -14 -20 -5 0 -9 -193 -9 -442 1 -418 2 -444 19 -465 l19 -23 505 0 505 0 6 31 c3 17 6 229 6 470 0 499 5 469 -84 469 l-53 0 -5 101 c-3 56 -10 104 -15 107 -6 4 -14 22 -18 40 -3 17 -10 32 -15 32 -5 0 -12 10 -16 23 -8 27 -101 117 -120 117 -8 0 -14 5 -14 10 0 6 -6 10 -14 10 -8 0 -16 6 -18 13 -3 8 -39 13 -124 14 -65 1 -126 0 -134 -3z m201 -151 c41 -23 85 -66 94 -92 3 -12 11 -21 16 -21 5 0 9 -7 9 -15 0 -8 4 -15 8 -15 4 0 9 -8 10 -17 8 -72 15 -103 24 -103 5 0 8 -10 6 -22 l-3 -23 -239 -3 -239 -2 5 72 c5 66 27 131 51 149 5 4 14 16 20 29 7 12 30 32 52 44 22 11 41 24 43 29 7 14 110 7 143 -10z m7 -639 c21 -14 22 -22 22 -160 0 -81 -5 -154 -10 -165 -9 -17 -22 -19 -98 -19 -55 0 -92 4 -100 12 -8 8 -12 59 -12 164 0 182 1 184 110 184 43 0 73 -5 88 -16z"/>
    <path d="M700 3263 c-8 -3 -25 -15 -37 -26 l-23 -20 0 -1247 c0 -956 3 -1249 12 -1258 9 -9 -37 -12 -208 -12 -183 0 -223 -3 -242 -16 -12 -8 -22 -21 -22 -29 0 -7 -6 -15 -12 -18 -10 -3 -13 -41 -13 -144 l0 -140 32 -31 31 -32 2357 0 2357 0 31 32 32 31 0 140 c0 103 -3 141 -12 145 -7 2 -13 10 -13 17 0 8 -10 21 -22 29 -19 14 -63 16 -280 16 -223 0 -258 2 -258 15 0 8 5 15 10 15 7 0 10 243 10 710 l0 710 -160 0 -160 0 0 -585 0 -585 -1585 0 -1585 0 0 990 0 990 1170 0 1170 0 0 155 0 155 -1282 -1 c-706 0 -1290 -3 -1298 -6z m2478 -2472 c16 -10 84 -200 76 -213 -6 -10 -1441 -11 -1447 0 -7 12 59 203 74 213 18 11 1279 12 1297 0z"/>
  </g>
</svg>